/* XPM */
static char *result[] = {
/* columns rows colors chars-per-pixel */
"32 32 2 1 ",
"  c #B3FF00",
". c None",
/* pixels */
"................................",
"................................",
"................................",
"................................",
".................     ..........",
".................     ..........",
".................     ..........",
".................     ..........",
".................     ..........",
"......................     .....",
"......................     .....",
"......................     .....",
"......................     .....",
"......................     .....",
".                             ..",
".                             ..",
".                             ..",
".                             ..",
".                             ..",
"......................     .....",
"......................     .....",
"......................     .....",
"......................     .....",
"......................     .....",
".................     ..........",
".................     ..........",
".................     ..........",
".................     ..........",
".................     ..........",
"................................",
"................................",
"................................"
};
