/* XPM */
static char *result[] = {
/* columns rows colors chars-per-pixel */
"32 32 100 2 ",
"   c black",
".  c #353535",
"X  c #F91F14",
"o  c #FA2A1F",
"O  c #FA352B",
"+  c #FA3C33",
"@  c #FA3F36",
"#  c #FA4239",
"$  c #FA433A",
"%  c #FA483F",
"&  c #FB4B42",
"*  c #FB4C43",
"=  c #FB5047",
"-  c #FB524A",
";  c #FB564D",
":  c #FB584F",
">  c #FB5850",
",  c #FB5A52",
"<  c #FB5C54",
"1  c #FB5E56",
"2  c #FB5F57",
"3  c #FB6058",
"4  c #FB6159",
"5  c #FB625A",
"6  c #FB645C",
"7  c #FB6760",
"8  c #FB6861",
"9  c #FB6C64",
"0  c #FB716A",
"q  c #FC746E",
"w  c #FC766F",
"e  c #FC7B74",
"r  c #FC807A",
"t  c #FC817B",
"y  c #FC837D",
"u  c #FC8680",
"i  c #FC8983",
"p  c #FC8984",
"a  c #FC8A85",
"s  c #FC8C86",
"d  c #FC8D87",
"f  c #FC9691",
"g  c #FC9791",
"h  c #FD9B96",
"j  c #FD9C97",
"k  c #FD9F9A",
"l  c #FD9F9B",
"z  c #FDA19D",
"x  c #FDA5A0",
"c  c #FDA6A2",
"v  c #FDA9A5",
"b  c #FDABA7",
"n  c #FDACA8",
"m  c #FDADA8",
"M  c #FDAEAA",
"N  c #FDAFAB",
"B  c #FDB4B1",
"V  c #FDB7B4",
"C  c #FDB8B4",
"Z  c #FDB9B5",
"A  c #FDBBB7",
"S  c #FDC1BE",
"D  c #FEC3C0",
"F  c #FEC4C1",
"G  c #FEC5C2",
"H  c #FEC8C5",
"J  c #FECAC8",
"K  c #FECBC9",
"L  c #FECDCA",
"P  c #FECECB",
"I  c #FED1CF",
"U  c #FED4D2",
"Y  c #FED9D7",
"T  c #FEDCDA",
"R  c #FEDDDB",
"E  c #FEDEDC",
"W  c #FEDFDE",
"Q  c #FEE0DF",
"!  c #FEE1E0",
"~  c #FEE3E1",
"^  c #FEE4E2",
"/  c #FEE5E4",
"(  c #FEE6E5",
")  c #FEEAE9",
"_  c #FFECEB",
"`  c #FFEDEC",
"'  c #FFEDED",
"]  c #FFEFEE",
"[  c #FFF0EF",
"{  c #FFF2F1",
"}  c #FFF3F2",
"|  c #FFF4F3",
" . c #FFF6F6",
".. c #FFF8F8",
"X. c #FFF9F9",
"o. c #FFFAF9",
"O. c #FFFBFB",
"+. c #FFFCFC",
"@. c white",
"#. c None",
/* pixels */
"#.#.#.#.#.#.#.#.#.#.#.    .               #.#.#.#.#.#.#.#.#.#.#.",
"#.#.#.#.#.#.#.#.#.#.    .       . . . .     #.#.#.#.#.#.#.#.#.#.",
"#.#.#.#.#.#.#.                                    #.#.#.#.#.#.#.",
"#.#.#.#.#.#.#.    .     @ & - : : - & @ .         #.#.#.#.#.#.#.",
"#.#.#.#.#.#.    .     - 6 0 e r r e 0 6 -   . . . . #.#.#.#.#.#.",
"#.#.#.#.    . . . % 3 w i f l x x l f i w 3 %       .   #.#.#.#.",
"#.#.#.#.. . .   * 7 t g v V S F F S V v g t 7 *         #.#.#.#.",
"#.#.#.. .       8 u k B G I Y E E Y I G B k u 8           #.#.#.",
"#.#.        # 6 y z Z L T / _ ' ' _ / T L Z z y 6 # . .     #.#.",
"#.#.      O : e h V P W ) {  .X.X. .{ ) W P V h e : O   .   #.#.",
"#.#..     $ 8 d m H R _ | X.+.@.@.+.X.| _ R H m d 8 $       #.#.",
"#.#.      = w h A U ( } o.+.@.@.@.@.+.o.} ( U A h w =       #.#.",
"#.#.  .   > r x F R ` ..+.@.@.@.@.@.@.+...` R F x r >       #.#.",
"#.#.  .   2 u b J ! [ o.@.@.@.@.@.@.@.@.o.[ ! J b u 2 .     #.#.",
"#.#.  . . 4 p M L ~ } O.@.@.@.@.@.@.@.@.O.} ~ L M p 4   .   #.#.",
"#.#.  . .   a N P ^ } O.@.@.@.@.@.@.@.@.O.} ^ P N a     .   #.#.",
"#.#.  .     a N P ^ } O.@.@.@.@.@.@.@.@.O.} ^ P N a     .   #.#.",
"#.#.  .     a N P ^ } O.@.@.@.@.@.@.@.@.O.} ^ P N a     .   #.#.",
"#.#.    .   a N P ^ } O.@.@.@.@.@.@.@.@.O.} ^ P N a         #.#.",
"#.#.    .   a N P ^ } O.@.@.@.@.@.@.@.@.O.} ^ P N a   .     #.#.",
"#.#.        a N P ^ } O.@.@.@.@.@.@.@.@.O.} ^ P N a   .     #.#.",
"#.#.        a N P ^ } O.@.@.@.@.@.@.@.@.O.} ^ P N a       . #.#.",
"#.#.  .     a N P ^ } O.@.@.@.@.@.@.@.@.O.} ^ P N a     .   #.#.",
"#.#.      4 i m J Q ] ..O.O.O.O.O.O.O.O...] Q J m i         #.#.",
"#.#.      1 y c F Y ( ] } } } } } } } } ] ( Y F c y 1       #.#.",
"#.#.      ; e j C K Y Q ^ ^ ^ ^ ^ ^ ^ ^ Q Y K C j e ; .     #.#.",
"#.  .     & 9 s x C D J P P P P P P P P J D C x s 9 & .     #.#.",
"#.    .   + , q s j c n N N N N N N N N n c j s q , + .       #.",
"#.. .     o # , 9 e y i a a a a a a a a i y e 9 , # o .   . . #.",
"#..       X o + & ; < 3 5 5 5 5 5 5 5 5 3 < ; & + o X         #.",
"#.#.#.#.#.#.#.#.#.#.#.#.#.#.#.#.#.#.#.#.#.#.#.#.#.#.#.#.#.#.#.#.",
"#.#.#.#.#.#.#.#.#.#.#.#.#.#.#.#.#.#.#.#.#.#.#.#.#.#.#.#.#.#.#.#."
};
