/* XPM */
static char *result[] = {
/* columns rows colors chars-per-pixel */
"32 32 2 1 ",
"  c #0A1EA8",
". c None",
/* pixels */
"................................",
"................................",
"....                       .....",
"....                       .....",
"....                       .....",
"....                       .....",
"....                       .....",
"....     .......................",
"....     .......................",
"....     .......................",
"....     .......................",
"....     .......................",
"....     .......................",
"....                ............",
"....                ............",
"....                ............",
"....                ............",
"....                ............",
"....     .......................",
"....     .......................",
"....     .......................",
"....     .......................",
"....     .......................",
"....     .......................",
"....     .......................",
"....     .......................",
"....                         ...",
"....                         ...",
"....                         ...",
"....                         ...",
"....                         ...",
"................................"
};
