/* XPM */
static char *result[] = {
/* columns rows colors chars-per-pixel */
"32 32 69 1 ",
"  c black",
". c #000001",
"X c #000002",
"o c #010003",
"O c #010004",
"+ c #010005",
"@ c #010006",
"# c #020006",
"$ c #020007",
"% c #020009",
"& c #02000A",
"* c #03000A",
"= c #03000B",
"- c #03000C",
"; c #03000D",
": c #03000E",
"> c #04000F",
", c #040011",
"< c #040012",
"1 c #050112",
"2 c #050113",
"3 c #050114",
"4 c #050115",
"5 c #050116",
"6 c #060116",
"7 c #060117",
"8 c #060118",
"9 c #060119",
"0 c #07011A",
"q c #07011B",
"w c #07011D",
"e c #07011E",
"r c #08011E",
"t c #08011F",
"y c #080120",
"u c #080121",
"i c #080122",
"p c #090123",
"a c #090124",
"s c #090125",
"d c #0A0126",
"f c #0A0127",
"g c #0A0129",
"h c #0A012A",
"j c #0B012B",
"k c #0B012C",
"l c #0B012E",
"z c #0C012E",
"x c #0C012F",
"c c #0C0130",
"v c #0C0132",
"b c #0D0132",
"n c #0D0133",
"m c #0D0136",
"M c #0E0237",
"N c #1F0477",
"B c #200478",
"V c #200479",
"C c #20047A",
"Z c #21047A",
"A c #21047B",
"S c #21047C",
"D c #22047D",
"F c #22047E",
"G c #22047F",
"H c #230480",
"J c #230481",
"K c #230482",
"L c None",
/* pixels */
"LLLLLLLLLLLLLLLLLLLLLLLLLLLLLLLL",
"LLLLLLLLLLLLLLLLLLLLLLLLLLLLLLLL",
"LLLLLLLLLLLLLLLLLLLLLLLLLLLLLLLL",
"LLLLLLLLLLLLLLLL      LLLLLLLLLL",
"LLLLLL   LBCA   AAACBL  LLLLLLLL",
"LLLLLLLLBAF         FABLLLLLLLLL",
"LLL LLLVD    siyis      LLLLLLLL",
"LL LL  F   garq9qrag   F  LLLLLL",
"LL L BD  jfuq61<16qufj  DB LLLLL",
"LL LNS  gae7,;*&*;,7eag  S LLLLL",
"LL LC  haw3;%@OOO@%;3wah  CLLLLL",
"LL ND  fr3-@o.   .o@-3rf  DNLLLL",
"LL VH ka9>$X       X$>9ak HVLLLL",
"LL S  ju5=O         O=5uj  SLLLL",
"LL D  jy3&o         o&3yj  DLLLL",
"LLN   jt2%X         X%2tj   NLLL",
"LLNF  jt2%o         X%2tj   NLLL",
"LLLD  ku4=o         o&3yj  D LLL",
"LLLS  zs9:@X        O=5uj  S LLL",
"LLLCJ vhy4=+X      X$>9ak HV LLL",
"LLLNF  cge3-$OooooO#-4rf  DN LLL",
"LLLLA   vgy7,-*%%&=>4wah  CL LLL",
"LLLLBG   nkaw8533370tsg  SNL LLL",
"LLLLLCJ   Mcjdpuuiadgk  DBL  LLL",
"LLLL LAJ    mbclllzx   FVL LLLLL",
"LLLLL  ZH             DVLLLLLLLL",
"LLLLLLL VFK         HS LLLLLLLLL",
"LLLLLLLL LCSG HHHGFAV LLLLLLLLLL",
"LLLLLLLLL    NBBBNLLL LLLLLLLLLL",
"LLLLLLLLLLLLLLLLLLL  LLLLLLLLLLL",
"LLLLLLLLLLLLLLLL   LLLLLLLLLLLLL",
"LLLLLLLLLLLLLLLLLLLLLLLLLLLLLLLL"
};
