/* XPM */
static char *result[] = {
/* columns rows colors chars-per-pixel */
"32 32 3 1 ",
"  c black",
". c white",
"X c None",
/* pixels */
"XXXXXXXXXXXXXXXXXXXXXXXXXXXXXXXX",
"XXXXXXXXXXXXXXXXXXXXXXXXXXXXXXXX",
"XXXXXXXXXXXXXXXXXXXXXXXXXXXXXXXX",
"XXXXXXXXXXXXXXXXXXXXXXXXXXXXXXXX",
"XXXXXX                 XXXXXXXXX",
"XXX     .....     ...    XXXXXXX",
"XX     ......     ....     XXXXX",
"X       .....     ...        XXX",
"        ......     .         XXX",
"        .....                 XX",
"          ..                  XX",
"                               X",
"                               X",
"                               X",
"                               X",
"                               X",
"                             XXX",
"X                         XXXXXX",
"XX                        XXXXXX",
"XXXX            XXX       XXXXXX",
"XXX        XXXXXXXXXX      XXXXX",
"XX       XXXXXXXXXXXXX      XXXX",
"XX      XXXXXXXXXXXXXX       XXX",
"X       XXXXXXXXXXXXXX       XXX",
"X       XXXXXXXXXXXXXXX       XX",
"X       XXXXXXXXXXXXXXX       XX",
"X       XXXXXXXXXXXXXXX       XX",
"X       XXXXXXXXXXXXXX        XX",
"X       XXXXXXXXXXXXX         XX",
"X       XXXXXXXXXXXXX         XX",
"XXX     XXXXXXXXXXXXXX        XX",
"XXXXXXXXXXXXXXXXXXXXXXXXXXXXXXXX"
};
