/* XPM */
static char *result[] = {
/* columns rows colors chars-per-pixel */
"32 32 3 1 ",
"  c black",
". c white",
"X c None",
/* pixels */
"XXXXXXXXXXXXXXXXXXXXXXXXXXXXXXXX",
"XXXXXXXXXXXXXXXXXXXXXXXXXXXXXXXX",
"XXXXXXXXXXXXXXXXXXXXXXXXXXXXXXXX",
"XXXXXXXXXXXXXXXXXXXXXXXXXXXXXXXX",
"XXXXXXXXXXXXXXXXXXXXXXXXXXXXXXXX",
"XXXXXXXXXXXXXX        XXXXXXXXXX",
"XXXXXXXXXX               XXXXXXX",
"XXXXXX                     XXXXX",
"XXXX                        XXXX",
"XXX                          XXX",
"XX                            XX",
"XX                            XX",
"XX                            XX",
"XX        ...                 XX",
"XX       .....                 X",
"XX       .....       ..        X",
"XX       ....       ....       X",
"XX       ....       ...        X",
"XXX       ..                   X",
"XXXX                          XX",
"XXXX                          XX",
"XXX                          XXX",
"XX                          XXXX",
"XX       XXXX               XXXX",
"XX     XXXXXXXXXXXXXXX       XXX",
"X      XXXXXXXXXXXXXXXX      XXX",
"X      XXXXXXXXXXXXXXXX       XX",
"X      XXXXXXXXXXXXXXX         X",
"X      XXXXXXXXXXXXXXX         X",
"X       XXXXXXXXXXXXXX         X",
"XX      XXXXXXXXXXXXXXX       XX",
"XXXX   XXXXXXXXXXXXXXXXXXXXXXXXX"
};
