/* XPM */
static char *result[] = {
/* columns rows colors chars-per-pixel */
"32 32 3 1 ",
"  c black",
". c white",
"X c None",
/* pixels */
"XXXXXXXXXXXXXXXXXXXXXXXXXXXXXXXX",
"XXXXXXXXXXXXXXXXXXXXXXXXXXXXXXXX",
"XXXXXXXXXXXXXXXXXXXXXXXXXXXXXXXX",
"XXXXXXXXXXXXXXXXXXXXXXXXXXXXXXXX",
"XXXXXXXXXXXXXXXXXXXXXXXXXXXXXXXX",
"XXXXXXXXXXXXXXXXXXXXXXXXXXXXXXXX",
"XXXXXXXXXXXXXXXXXXXXXXXXXXXXXXXX",
"XXXXX                 XXXXXXXXXX",
"XXXX                       XXXXX",
"XXX                         XXXX",
"XXX                          XXX",
"XX             ..            XXX",
"XX    ...    .....           XXX",
"XX   .....  ......           XXX",
"XX   .....  ......           XXX",
"XX    ...   ......           XXX",
"XX           ....           XXXX",
"XX            .             XXXX",
"XXX                         XXXX",
"XXXXX                      XXXXX",
"XXXXXX                     XXXXX",
"XXXXX       X              XXXXX",
"XXXX        XXXXXXXX        XXXX",
"XXX       XXXXXXXXXXX       XXXX",
"XX       XXXXXXXXXXXXX      XXXX",
"XX      XXXXXXXXXXXXXX      XXXX",
"XX      XXXXXXXXXXXXXX       XXX",
"XX      XXXXXXXXXXXXX        XXX",
"XX       XXXXXXXXXXX         XXX",
"XX       XXXXXXXXXXX         XXX",
"XX       XXXXXXXXXXXX       XXXX",
"XXXXXXXXXXXXXXXXXXXXXXXXXXXXXXXX"
};
