/* XPM */
static char *result[] = {
/* columns rows colors chars-per-pixel */
"32 32 3 1 ",
"  c black",
". c #C846F2",
"X c #24FF32",
/* pixels */
"XXXX.....XXXX.....XXXX ..... XXX",
"XX..................X.........XX",
"X..............................X",
"X.............................. ",
"................................",
"................................",
"................................",
"................................",
"................................",
"X.............................. ",
"X..............................X",
"X...................X.........XX",
"X...........X.....XX...........X",
".............XXXXXXX...........X",
".............XXXXXX.............",
".............XXXXXX.............",
".............XXXXXX.............",
".............XXXXXX.............",
"X...........XXXXXXX.............",
"X...........XX.....X...........X",
"XX.........X...................X",
"X..............................X",
" .............................. ",
"................................",
"................................",
"................................",
"................................",
"................................",
" .............................. ",
"X..............................X",
"XX.........X..................XX",
"XXX ..... XXXX.....XXX ..... XXX"
};
