/* XPM */
static char *result[] = {
/* columns rows colors chars-per-pixel */
"32 32 76 1 ",
"  c #09755B",
". c #09765C",
"X c #09785D",
"o c #09795E",
"O c #097A5F",
"+ c #097B60",
"@ c #097C60",
"# c #097E62",
"$ c #0A8063",
"% c #0A8366",
"& c #0A8467",
"* c #0A8568",
"= c #0A8668",
"- c #0A8869",
"; c #0A896B",
": c #0A8C6D",
"> c #0B8F6F",
", c #0B9070",
"< c #0B9272",
"1 c #0B9372",
"2 c #0B9573",
"3 c #0B9674",
"4 c #0C9B78",
"5 c #0C9C79",
"6 c #0C9D7A",
"7 c #0C9F7B",
"8 c #0CA37E",
"9 c #0CA37F",
"0 c #0CA580",
"q c #0DA882",
"w c #0DA983",
"e c #0DAC85",
"r c #0DAC86",
"t c #0DAE87",
"y c #0DB089",
"u c #0DB38B",
"i c #0DB58C",
"p c #0EB68D",
"a c #0EBA91",
"s c #0EBD92",
"d c #0EBE93",
"f c #0EBF94",
"g c #0EC196",
"h c #0FC398",
"j c #0FC599",
"k c #0FC79B",
"l c #0FC89C",
"z c #0FC99C",
"x c #0FCC9E",
"c c #10D1A2",
"v c #10D2A3",
"b c #10D3A4",
"n c #10D7A7",
"m c #10D9A8",
"M c #10DAA9",
"N c #10DDAC",
"B c #10DEAC",
"V c #11DEAC",
"C c #11DFAD",
"Z c #11E2AF",
"A c #11E3B0",
"S c #11E4B1",
"D c #11E9B5",
"F c #11EAB6",
"G c #12EEB9",
"H c #12EFBA",
"J c #12F4BD",
"K c #12F5BE",
"L c #12F7C0",
"P c #13F9C1",
"I c #13FAC2",
"U c #13FBC3",
"Y c #13FDC5",
"T c #13FEC5",
"R c #13FFC6",
"E c None",
/* pixels */
"EEEEEEEEEEEEEEEEEEEEEEEEEEEEEEEE",
"EEEEEEEEEEEEEEEEEEEEEEEEEEEEEEEE",
"EEEEEEEEEEEEEEEEEEEEEEEEEEEEEEEE",
"EEEEEEEEEEEEEEEEEEEEEEEEEEEEEEEE",
"EEEEEEEEEEEEEEEEEEEEEEEEEEEEEEEE",
"EEEEEEEEEEEEEE  EEEEEEEEEEEEEEEE",
"EEEEEEEEEEE6RNu0gGI+EEEEEEEEEEEE",
"EEEEEEEEE+L#3vJLFj*:T EEEEEEEEEE",
"EEEEEEEEZ78Tnq>;2tAI,awEEEEEEEEE",
"EEEEEEEK#CB& =441$ ;Dda EEEEEEEE",
"EEEEEEZ#Hp 1fVDDDbf:oA8GEEEEEEEE",
"EEEEE+0Cp eVLRRRRRLb1$R.cEEEEEEE",
"EEEEEU5B eVLRRRRRRRLzXsjDEEEEEEE",
"EEEE <I>1VLRRRRRRRRRD4$T- EEEEEE",
"EEEEMOG iLRRRRRRRRRRRf GOMEEEEEE",
"EEEER3cXbRRRRRRRRRRRRbXc5REEEEEE",
"EEEER8h@bRRRRRRRRRRRRV$syREEEEEE",
"EEEER3cXbRRRRRRRRRRRRV$syREEEEEE",
"EEEEMOG iLRRRRRRRRRRRbXc5REEEEEE",
"EEEE <I>1VLRRRRRRRRRLi GOMEEEEEE",
"EEEEEU5B eVLRRRRRRRLV1>I< EEEEEE",
"EEEEE+7Cp eVLRRRRRLV9 A5UEEEEEEE",
"EEEEEED+Lt 9zDLLDVf1 hvr EEEEEEE",
"EEEEEEEY.Jho@4ee9: &Bm:cEEEEEEEE",
"EEEEEEEEI%xPs>@o$4cT80cEEEEEEEEE",
"EEEEEEEEEkl.dJRRTS5#L+EEEEEEEEEE",
"EEEEEEEEEE ZGr-#:gR6EEEEEEEEEEEE",
"EEEEEEEEEEEEEE + EEEEEEEEEEEEEEE",
"EEEEEEEEEEEEEEEEEEEEEEEEEEEEEEEE",
"EEEEEEEEEEEEEEEEEEEEEEEEEEEEEEEE",
"EEEEEEEEEEEEEEEEEEEEEEEEEEEEEEEE",
"EEEEEEEEEEEEEEEEEEEEEEEEEEEEEEEE"
};
