/* XPM */
static char *result[] = {
/* columns rows colors chars-per-pixel */
"32 32 69 1 ",
"  c black",
". c #000001",
"X c #000002",
"o c #010003",
"O c #010004",
"+ c #010005",
"@ c #010006",
"# c #020006",
"$ c #020007",
"% c #020009",
"& c #02000A",
"* c #03000A",
"= c #03000B",
"- c #03000C",
"; c #03000D",
": c #03000E",
"> c #04000F",
", c #040011",
"< c #040012",
"1 c #050112",
"2 c #050113",
"3 c #050114",
"4 c #050115",
"5 c #050116",
"6 c #060116",
"7 c #060117",
"8 c #060118",
"9 c #060119",
"0 c #07011A",
"q c #07011B",
"w c #07011D",
"e c #07011E",
"r c #08011E",
"t c #08011F",
"y c #080120",
"u c #080121",
"i c #080122",
"p c #090123",
"a c #090124",
"s c #090125",
"d c #0A0126",
"f c #0A0127",
"g c #0A0129",
"h c #0A012A",
"j c #0B012B",
"k c #0B012C",
"l c #0B012E",
"z c #0C012E",
"x c #0C012F",
"c c #0C0130",
"v c #0C0132",
"b c #0D0132",
"n c #0D0133",
"m c #0D0136",
"M c #0E0237",
"N c #1F0477",
"B c #200478",
"V c #200479",
"C c #20047A",
"Z c #21047A",
"A c #21047B",
"S c #21047C",
"D c #22047D",
"F c #22047E",
"G c #22047F",
"H c #230480",
"J c #230481",
"K c #230482",
"L c None",
/* pixels */
"LLLLLLLLLLLLLLLLLLLLLLLLLLLLLLLL",
"LLLLLLLLLLLLLLLLLLLLLLLLLLLLLLLL",
"LLLLLLLLLLLLLLLL   L LLLLLLLLLLL",
"LLLLLLLLLLLLL   LLL LLLLLLLLLLLL",
"LLLLLLLLLLB  AAAAAAC LLLLLLLLLLL",
"LLLLLLLLBA          FA  LLLLLLLL",
"LLL   LVD    siyis    DV LLLLLLL",
"LLLLLLVF   garq9qrag   F LLLLLLL",
"LLLLLBD  jfuq61<16qufj  DBLLLLLL",
"L L  S  gae7,;*&*;,7eag  SNLLLLL",
" LLLC  haw3;%@OOO@%;3wah  CLLLLL",
" L ND  fr3-@o.   .o@-3rf  DNLLLL",
"L LVH ka9>$X       X$>9ak  VLLLL",
"L LS  ju5=O         O=5uj   LLLL",
"L LD  jy3&o         o&3yj  D LLL",
"L NF  jt2%X         X%2tj  F LLL",
"LL F  jt2%o         X%2tj  F LLL",
"LL D  ku4=o         o&3yj  D LLL",
"LLL   zs9:@X        O=5uj  SL LL",
"LLLCJ vhy4=+X      X$>9ak HVL LL",
"LLLNF  cge3-$OooooO#-4rf  DN  LL",
"LLLLA   vgy7,-*%%&=>4wah  C LLLL",
"LLLLBG   nkaw8533370tsg  SNLLLLL",
"LLLLLCJ   Mcjdpuuiadgk  DBLLLLLL",
"LLLLLLAJ    mbclllzx   F LLLLLLL",
"LLLLLLLZH             D LLLLLLLL",
"LLLLLL LVFK         HSB LLLLLLLL",
"LLLLLLL  LCSGHH HGFAVLL LLLLLLLL",
"LLLLLLLLL  LLN  BNLLLL LLLLLLLLL",
"LLLLLLLLLLLL  LLLLL   LLLLLLLLLL",
"LLLLLLLLLLLLLLLLLLLLLLLLLLLLLLLL",
"LLLLLLLLLLLLLLLLLLLLLLLLLLLLLLLL"
};
