/* XPM */
static char *result[] = {
/* columns rows colors chars-per-pixel */
"32 32 71 1 ",
"  c black",
". c #000001",
"X c #000002",
"o c #010003",
"O c #010004",
"+ c #010005",
"@ c #010006",
"# c #020006",
"$ c #020007",
"% c #020009",
"& c #02000A",
"* c #03000A",
"= c #03000B",
"- c #03000C",
"; c #03000D",
": c #03000E",
"> c #04000F",
", c #040011",
"< c #040012",
"1 c #050112",
"2 c #050113",
"3 c #050114",
"4 c #050115",
"5 c #050116",
"6 c #060116",
"7 c #060117",
"8 c #060118",
"9 c #060119",
"0 c #07011A",
"q c #07011B",
"w c #07011D",
"e c #07011E",
"r c #08011E",
"t c #08011F",
"y c #080120",
"u c #080121",
"i c #080122",
"p c #090123",
"a c #090124",
"s c #090125",
"d c #0A0126",
"f c #0A0127",
"g c #0A0129",
"h c #0A012A",
"j c #0B012B",
"k c #0B012C",
"l c #0B012E",
"z c #0C012E",
"x c #0C012F",
"c c #0C0130",
"v c #0C0132",
"b c #0D0132",
"n c #0D0133",
"m c #0D0136",
"M c #0E0237",
"N c #1D0471",
"B c #1F0476",
"V c #1F0477",
"C c #200478",
"Z c #200479",
"A c #20047A",
"S c #21047A",
"D c #21047B",
"F c #21047C",
"G c #22047D",
"H c #22047E",
"J c #22047F",
"K c #230480",
"L c #230481",
"P c #230482",
"I c None",
/* pixels */
"IIIIIIIIIIIIIIIIIIIIIIIIIIIIIIII",
"IIIIIIIIIIIII   IIIIIIIIIIIIIIII",
"IIIIIIIIIIII  IIII  IIIIIIIIIIII",
"IIIIIIIIIII II I II  IIIIIIIIIII",
"IIIIIIIIII ADDDD DDA IIIIIIIIIII",
"IIIIIIII  H         HDCIIIIIIIII",
"IIIIIIIZG    siyis    GZIIIIIIII",
"IIIIIIZH   garq9qrag    ZIIIIIII",
"IIIIICG  jfuq61<16qufj   CIIIIII",
"IIIIBF  gae7,;*&*;,7eag  F IIIII",
"IIIIA  haw3;%@OOO@%;3wah  A IIII",
"IIING  fr3-@o.   .o@-3rf  G  III",
"IIIZK ka9>$X       X$>9ak KZ III",
"II F  ju5=O         O=5uj  FI II",
"IIIG  jy3&o         o&3yj  GI II",
"II H  jt2%X         X%2tj  HV  I",
"IIVH  jt2%o         X%2tj  H III",
"II    ku4=o         o&3yj  GIIII",
"II F  zs9:@X        O=5uj  F III",
"IIIAL vhy4=+X      X$>9ak KZIIII",
"II  H  cge3-$OooooO#-4rf  GV III",
"III D   vgy7,-*%%&=>4wah  AIIIII",
"IIII     nkaw8533370tsg  FVIIIII",
"IIIIIAL   Mcjdpuuiadgk  GCIIIIII",
"IIIIIIDL    mbclllzx   HZIIIIIII",
"IIIIIIISK             GZ IIIIIII",
"IIIII IIZHP         KFC IIIIIIII",
"IIIIII IIIAFJKKKKJHDZII IIIIIIII",
"IIIIII   II  VCCCVIIII IIIIIIIII",
"IIIIIIIIII I IIIIIII  IIIIIIIIII",
"IIIIIIIIIIIIIIII II  IIIIIIIIIII",
"IIIIIIIIIIIIIIIIII IIIIIIIIIIIII"
};
