/* XPM */
static char *result[] = {
/* columns rows colors chars-per-pixel */
"32 32 3 1 ",
"  c black",
". c white",
"X c None",
/* pixels */
"XXXXXXXXXXXXXXXXXXXXXXXXXXXXXXXX",
"XXXXXXXXXXXXXXXXXXXXXXXXXXXXXXXX",
"XXXXXXXXXXXXXXXXXXXXXXXXXXXXXXXX",
"XXXXXXXXXXXXXXXXXXXXXXXXXXXXXXXX",
"XXXXXXXXXXXXXXXXXXXXXXXXXXXXXXXX",
"XXXXXXXXXXXXXXXXXXXXXXXXXXXXXXXX",
"XXXXXXXXXXXX       XXXXXXXXXXXXX",
"XXXXXXXX                 XXXXXXX",
"XXXXXX                      XXXX",
"XXXX                         XXX",
"XXX           .              XXX",
"XXX    ..    ....            XXX",
"XXX   ....  ......           XXX",
"XXX   ....  ......           XXX",
"XXX   ....  ......           XXX",
"XXX     .   .....            XXX",
"XXXX         ...             XXX",
"XXXXX                        XXX",
"XXXXX                        XXX",
"XXXXXX                      XXXX",
"XXXXXX                      XXXX",
"XXXXX      XXXXXX         XXXXXX",
"XXXX      XXXXXXXXXX     XXXXXXX",
"XXX      XXXXXXXXXXXX      XXXXX",
"XXX     XXXXXXXXXXXXXX     XXXXX",
"XXX     XXXXXXXXXXXXXX     XXXXX",
"XXX     XXXXXXXXXXXXX      XXXXX",
"XX       XXXXXXXXXXX       XXXXX",
"XX       XXXXXXXXXXX        XXXX",
"XX       XXXXXXXXXXX        XXXX",
"XX       XXXXXXXXXXX       XXXXX",
"XXXX   XXXXXXXXXXXXXXXXXXXXXXXXX"
};
