/* XPM */
static char *result[] = {
/* columns rows colors chars-per-pixel */
"32 32 3 1 ",
"  c black",
". c white",
"X c None",
/* pixels */
"XXXXXXXXXXXXXXXXXXXXXXXXXXXXXXXX",
"XXXXXXXXXXX        XXXXXXXXXXXXX",
"XXXXXXXX                XXXXXXXX",
"XXXXX                    XXXXXXX",
"XXX                       XXXXXX",
"XX                         XXXXX",
"X            ....           XXXX",
"X      ..   .....           XXXX",
"     ....  ......            XXX",
"     ....  ......            XXX",
"     ....  .....             XXX",
"     ....  .....             XXX",
"             .               XXX",
"X                            XXX",
"XX                           XXX",
"XXXX                         XXX",
"XXXX                        XXXX",
"XXX                     XXXXXXXX",
"XXX       XXXXXXXXX      XXXXXXX",
"XXX      XXXXXXXXXXX      XXXXXX",
"XXX     XXXXXXXXXXXXX      XXXXX",
"XXX     XXXXXXXXXXXXXX     XXXXX",
"XX      XXXXXXXXXXXXXX      XXXX",
"XX      XXXXXXXXXXXXXXX     XXXX",
"XX     XXXXXXXXXXXXXXXXX     XXX",
"XX     XXXXXXXXXXXXXXXXX     XXX",
"XX     XXXXXXXXXXXXXXXXX     XXX",
"XX     XXXXXXXXXXXXXXXX      XXX",
"X       XXXXXXXXXXXXXX       XXX",
"X       XXXXXXXXXXXXXX        XX",
"XX      XXXXXXXXXXXXXXX       XX",
"XXXXXXXXXXXXXXXXXXXXXXXXXXXXXXXX"
};
