/* XPM */
static char *result[] = {
/* columns rows colors chars-per-pixel */
"32 32 3 1 ",
"  c black",
". c white",
"X c None",
/* pixels */
"XXXXXXXXXXXXXXXXXXXXXXXXXXXXXXXX",
"XXXXXXXXXXXXXXXXXXXXXXXXXXXXXXXX",
"XXXXXXXXXXXXXXXXXXXXXXXXXXXXXXXX",
"XXXXXXXXXXXXXXXXXXXXXXXXXXXXXXXX",
"XXXXXXXXXXXXXX   XXXXXXXXXXXXXXX",
"XXXXXXXXXXXX       XXXXXXXXXXXXX",
"XXXXXXXXXXXX       XXXXXXXXXXXXX",
"XXXXXXXXXXX         XXXXXXXXXXXX",
"XXXXXXXXXXX   . .   XXXXXXXXXXXX",
"XXXXXXXXXXX   . .   XXXXXXXXXXXX",
"XXXXXXXXXXXX       XXXXXXXXXXXXX",
"XXXXXXXXXXXX       XXXXXXXXXXXXX",
"XXXXXXXXXXXXXX   XXXXXXXXXXXXXXX",
"XXXXXXXXXXXXXXX XXXXXXXXXXXXXXXX",
"XXXXXX       X   X       XXXXXXX",
"XXXXX                     XXXXXX",
"XXXXXX       X   X       XXXXXXX",
"XXXXX       XX   XX       XXXXXX",
"XXXXXX     XXX   XXX     XXXXXXX",
"XXXXXXXXXXXXXX   XXXXXXXXXXXXXXX",
"XXXXXXXXXXXXXX   XXXXXXXXXXXXXXX",
"XXXXXXXXXXXXX     XXXXXXXXXXXXXX",
"XXXXXXXXXXXX       XXXXXXXXXXXXX",
"XXXXXXXXXXXX   X   XXXXXXXXXXXXX",
"XXXXXXXXXXX   XXX   XXXXXXXXXXXX",
"XXXXXXXXXXX   XXX   XXXXXXXXXXXX",
"XXXXXXXXXX    XXX    XXXXXXXXXXX",
"XXXXXXXXXX    XXX    XXXXXXXXXXX",
"XXXXXXXXX      X      XXXXXXXXXX",
"XXXXXXXXXX    XXX    XXXXXXXXXXX",
"XXXXXXXXXXXXXXXXXXXXXXXXXXXXXXXX",
"XXXXXXXXXXXXXXXXXXXXXXXXXXXXXXXX"
};
